<svg xmlns="http://www.w3.org/2000/svg" viewBox="0 0 1024 1024" width="1024" height="1024">
<defs>
    <clipPath id="frame" clipPathUnits="userSpaceOnUse">
      <path d="M1024.00,512.00L1023.98,600.07L1023.94,628.21L1023.86,648.66L1023.75,665.32L1023.61,679.62L1023.44,692.28L1023.24,703.72L1023.01,714.20L1022.75,723.92L1022.46,733.00L1022.13,741.54L1021.78,749.62L1021.39,757.29L1020.97,764.60L1020.52,771.59L1020.04,778.30L1019.53,784.74L1018.99,790.95L1018.41,796.94L1017.81,802.74L1017.17,808.34L1016.50,813.78L1015.80,819.05L1015.06,824.18L1014.30,829.16L1013.50,834.01L1012.67,838.73L1011.81,843.33L1010.92,847.82L1009.99,852.20L1009.03,856.48L1008.04,860.66L1007.01,864.75L1005.96,868.74L1004.86,872.65L1003.74,876.47L1002.58,880.22L1001.39,883.88L1000.16,887.47L998.90,890.99L997.61,894.43L996.28,897.81L994.91,901.12L993.52,904.36L992.08,907.55L990.61,910.67L989.11,913.73L987.56,916.73L985.99,919.68L984.37,922.56L982.72,925.40L981.03,928.18L979.30,930.91L977.54,933.59L975.74,936.21L973.90,938.79L972.02,941.32L970.10,943.80L968.14,946.23L966.14,948.62L964.09,950.96L962.01,953.26L959.89,955.51L957.72,957.72L955.51,959.89L953.26,962.01L950.96,964.09L948.62,966.14L946.23,968.14L943.80,970.10L941.32,972.02L938.79,973.90L936.21,975.74L933.59,977.54L930.91,979.30L928.18,981.03L925.40,982.72L922.56,984.37L919.68,985.99L916.73,987.56L913.73,989.11L910.67,990.61L907.55,992.08L904.36,993.52L901.12,994.91L897.81,996.28L894.43,997.61L890.99,998.90L887.47,1000.16L883.88,1001.39L880.22,1002.58L876.47,1003.74L872.65,1004.86L868.74,1005.96L864.75,1007.01L860.66,1008.04L856.48,1009.03L852.20,1009.99L847.82,1010.92L843.33,1011.81L838.73,1012.67L834.01,1013.50L829.16,1014.30L824.18,1015.06L819.05,1015.80L813.78,1016.50L808.34,1017.17L802.74,1017.81L796.94,1018.41L790.95,1018.99L784.74,1019.53L778.30,1020.04L771.59,1020.52L764.60,1020.97L757.29,1021.39L749.62,1021.78L741.54,1022.13L733.00,1022.46L723.92,1022.75L714.20,1023.01L703.72,1023.24L692.28,1023.44L679.62,1023.61L665.32,1023.75L648.66,1023.86L628.21,1023.94L600.07,1023.98L512.00,1024.00L423.93,1023.98L395.79,1023.94L375.34,1023.86L358.68,1023.75L344.38,1023.61L331.72,1023.44L320.28,1023.24L309.80,1023.01L300.08,1022.75L291.00,1022.46L282.46,1022.13L274.38,1021.78L266.71,1021.39L259.40,1020.97L252.41,1020.52L245.70,1020.04L239.26,1019.53L233.05,1018.99L227.06,1018.41L221.26,1017.81L215.66,1017.17L210.22,1016.50L204.95,1015.80L199.82,1015.06L194.84,1014.30L189.99,1013.50L185.27,1012.67L180.67,1011.81L176.18,1010.92L171.80,1009.99L167.52,1009.03L163.34,1008.04L159.25,1007.01L155.26,1005.96L151.35,1004.86L147.53,1003.74L143.78,1002.58L140.12,1001.39L136.53,1000.16L133.01,998.90L129.57,997.61L126.19,996.28L122.88,994.91L119.64,993.52L116.45,992.08L113.33,990.61L110.27,989.11L107.27,987.56L104.32,985.99L101.44,984.37L98.60,982.72L95.82,981.03L93.09,979.30L90.41,977.54L87.79,975.74L85.21,973.90L82.68,972.02L80.20,970.10L77.77,968.14L75.38,966.14L73.04,964.09L70.74,962.01L68.49,959.89L66.28,957.72L64.11,955.51L61.99,953.26L59.91,950.96L57.86,948.62L55.86,946.23L53.90,943.80L51.98,941.32L50.10,938.79L48.26,936.21L46.46,933.59L44.70,930.91L42.97,928.18L41.28,925.40L39.63,922.56L38.01,919.68L36.44,916.73L34.89,913.73L33.39,910.67L31.92,907.55L30.48,904.36L29.09,901.12L27.72,897.81L26.39,894.43L25.10,890.99L23.84,887.47L22.61,883.88L21.42,880.22L20.26,876.47L19.14,872.65L18.04,868.74L16.99,864.75L15.96,860.66L14.97,856.48L14.01,852.20L13.08,847.82L12.19,843.33L11.33,838.73L10.50,834.01L9.70,829.16L8.94,824.18L8.20,819.05L7.50,813.78L6.83,808.34L6.19,802.74L5.59,796.94L5.01,790.95L4.47,784.74L3.96,778.30L3.48,771.59L3.03,764.60L2.61,757.29L2.22,749.62L1.87,741.54L1.54,733.00L1.25,723.92L0.99,714.20L0.76,703.72L0.56,692.28L0.39,679.62L0.25,665.32L0.14,648.66L0.06,628.21L0.02,600.07L0.00,512.00L0.02,423.93L0.06,395.79L0.14,375.34L0.25,358.68L0.39,344.38L0.56,331.72L0.76,320.28L0.99,309.80L1.25,300.08L1.54,291.00L1.87,282.46L2.22,274.38L2.61,266.71L3.03,259.40L3.48,252.41L3.96,245.70L4.47,239.26L5.01,233.05L5.59,227.06L6.19,221.26L6.83,215.66L7.50,210.22L8.20,204.95L8.94,199.82L9.70,194.84L10.50,189.99L11.33,185.27L12.19,180.67L13.08,176.18L14.01,171.80L14.97,167.52L15.96,163.34L16.99,159.25L18.04,155.26L19.14,151.35L20.26,147.53L21.42,143.78L22.61,140.12L23.84,136.53L25.10,133.01L26.39,129.57L27.72,126.19L29.09,122.88L30.48,119.64L31.92,116.45L33.39,113.33L34.89,110.27L36.44,107.27L38.01,104.32L39.63,101.44L41.28,98.60L42.97,95.82L44.70,93.09L46.46,90.41L48.26,87.79L50.10,85.21L51.98,82.68L53.90,80.20L55.86,77.77L57.86,75.38L59.91,73.04L61.99,70.74L64.11,68.49L66.28,66.28L68.49,64.11L70.74,61.99L73.04,59.91L75.38,57.86L77.77,55.86L80.20,53.90L82.68,51.98L85.21,50.10L87.79,48.26L90.41,46.46L93.09,44.70L95.82,42.97L98.60,41.28L101.44,39.63L104.32,38.01L107.27,36.44L110.27,34.89L113.33,33.39L116.45,31.92L119.64,30.48L122.88,29.09L126.19,27.72L129.57,26.39L133.01,25.10L136.53,23.84L140.12,22.61L143.78,21.42L147.53,20.26L151.35,19.14L155.26,18.04L159.25,16.99L163.34,15.96L167.52,14.97L171.80,14.01L176.18,13.08L180.67,12.19L185.27,11.33L189.99,10.50L194.84,9.70L199.82,8.94L204.95,8.20L210.22,7.50L215.66,6.83L221.26,6.19L227.06,5.59L233.05,5.01L239.26,4.47L245.70,3.96L252.41,3.48L259.40,3.03L266.71,2.61L274.38,2.22L282.46,1.87L291.00,1.54L300.08,1.25L309.80,0.99L320.28,0.76L331.72,0.56L344.38,0.39L358.68,0.25L375.34,0.14L395.79,0.06L423.93,0.02L512.00,0.00L600.07,0.02L628.21,0.06L648.66,0.14L665.32,0.25L679.62,0.39L692.28,0.56L703.72,0.76L714.20,0.99L723.92,1.25L733.00,1.54L741.54,1.87L749.62,2.22L757.29,2.61L764.60,3.03L771.59,3.48L778.30,3.96L784.74,4.47L790.95,5.01L796.94,5.59L802.74,6.19L808.34,6.83L813.78,7.50L819.05,8.20L824.18,8.94L829.16,9.70L834.01,10.50L838.73,11.33L843.33,12.19L847.82,13.08L852.20,14.01L856.48,14.97L860.66,15.96L864.75,16.99L868.74,18.04L872.65,19.14L876.47,20.26L880.22,21.42L883.88,22.61L887.47,23.84L890.99,25.10L894.43,26.39L897.81,27.72L901.12,29.09L904.36,30.48L907.55,31.92L910.67,33.39L913.73,34.89L916.73,36.44L919.68,38.01L922.56,39.63L925.40,41.28L928.18,42.97L930.91,44.70L933.59,46.46L936.21,48.26L938.79,50.10L941.32,51.98L943.80,53.90L946.23,55.86L948.62,57.86L950.96,59.91L953.26,61.99L955.51,64.11L957.72,66.28L959.89,68.49L962.01,70.74L964.09,73.04L966.14,75.38L968.14,77.77L970.10,80.20L972.02,82.68L973.90,85.21L975.74,87.79L977.54,90.41L979.30,93.09L981.03,95.82L982.72,98.60L984.37,101.44L985.99,104.32L987.56,107.27L989.11,110.27L990.61,113.33L992.08,116.45L993.52,119.64L994.91,122.88L996.28,126.19L997.61,129.57L998.90,133.01L1000.16,136.53L1001.39,140.12L1002.58,143.78L1003.74,147.53L1004.86,151.35L1005.96,155.26L1007.01,159.25L1008.04,163.34L1009.03,167.52L1009.99,171.80L1010.92,176.18L1011.81,180.67L1012.67,185.27L1013.50,189.99L1014.30,194.84L1015.06,199.82L1015.80,204.95L1016.50,210.22L1017.17,215.66L1017.81,221.26L1018.41,227.06L1018.99,233.05L1019.53,239.26L1020.04,245.70L1020.52,252.41L1020.97,259.40L1021.39,266.71L1021.78,274.38L1022.13,282.46L1022.46,291.00L1022.75,300.08L1023.01,309.80L1023.24,320.28L1023.44,331.72L1023.61,344.38L1023.75,358.68L1023.86,375.34L1023.94,395.79L1023.98,423.93Z"/>
    </clipPath>

    <!-- Deep water: near-black -->
    <radialGradient id="bg" cx="30%" cy="14%" r="96%">
      <stop offset="0%"   stop-color="#111f2b"/>
      <stop offset="50%"  stop-color="#070d13"/>
      <stop offset="100%" stop-color="#020406"/>
    </radialGradient>

    <!-- Light raking the upper-left edge of the silhouette -->
    <linearGradient id="rim" gradientUnits="userSpaceOnUse" x1="200" y1="200" x2="800" y2="850">
      <stop offset="0%"   stop-color="#bff0e8" stop-opacity="0.55"/>
      <stop offset="35%"  stop-color="#8fd8e0" stop-opacity="0.12"/>
      <stop offset="100%" stop-color="#8fd8e0" stop-opacity="0"/>
    </linearGradient>
  </defs>

  <g clip-path="url(#frame)">
    <rect width="1024" height="1024" fill="url(#bg)"/>

          <path d="M0.0,589.1 16.0,587.3 32.0,586.2 48.0,585.7 64.0,585.5 80.0,585.4 96.0,585.2 112.0,584.5 128.0,583.4 144.0,581.6 160.0,579.4 176.0,576.6 192.0,573.6 208.0,570.6 224.0,567.8 240.0,565.5 256.0,564.1 272.0,563.8 288.0,564.7 304.0,566.9 320.0,570.5 336.0,575.2 352.0,581.0 368.0,587.5 384.0,594.4 400.0,601.3 416.0,607.9 432.0,613.8 448.0,618.7 464.0,622.5 480.0,625.0 496.0,626.2 512.0,626.2 528.0,625.2 544.0,623.4 560.0,621.0 576.0,618.4 592.0,615.8 608.0,613.5 624.0,611.7 640.0,610.3 656.0,609.6 672.0,609.2 688.0,609.3 704.0,609.4 720.0,609.4 736.0,609.0 752.0,608.0 768.0,606.2 784.0,603.5 800.0,599.9 816.0,595.4 832.0,590.2 848.0,584.5 864.0,578.6 880.0,572.9 896.0,567.6 912.0,563.2 928.0,559.9 944.0,557.9 960.0,557.4 976.0,558.4 992.0,560.7 1008.0,564.4 1024.0,569.0 L1024,1024 L0,1024 Z" fill="#2f93b8"/>
      <path d="M0.0,703.9 16.0,705.3 32.0,705.7 48.0,705.4 64.0,704.2 80.0,702.4 96.0,700.2 112.0,697.6 128.0,694.8 144.0,692.1 160.0,689.5 176.0,687.2 192.0,685.2 208.0,683.7 224.0,682.5 240.0,681.8 256.0,681.3 272.0,680.9 288.0,680.7 304.0,680.4 320.0,679.8 336.0,678.9 352.0,677.7 368.0,675.9 384.0,673.6 400.0,670.8 416.0,667.6 432.0,664.1 448.0,660.4 464.0,656.7 480.0,653.1 496.0,649.8 512.0,647.1 528.0,645.0 544.0,643.8 560.0,643.4 576.0,644.0 592.0,645.5 608.0,647.9 624.0,651.1 640.0,654.9 656.0,659.2 672.0,663.9 688.0,668.6 704.0,673.2 720.0,677.5 736.0,681.4 752.0,684.7 768.0,687.4 784.0,689.5 800.0,690.9 816.0,691.7 832.0,691.9 848.0,691.8 864.0,691.4 880.0,691.0 896.0,690.5 912.0,690.2 928.0,690.1 944.0,690.4 960.0,690.9 976.0,691.8 992.0,693.0 1008.0,694.3 1024.0,695.6 L1024,1024 L0,1024 Z" fill="#1d76a2"/>
      <path d="M0.0,746.0 16.0,746.1 32.0,746.2 48.0,746.1 64.0,745.7 80.0,745.1 96.0,744.3 112.0,743.4 128.0,742.3 144.0,741.1 160.0,739.9 176.0,738.9 192.0,738.0 208.0,737.4 224.0,737.2 240.0,737.4 256.0,738.1 272.0,739.3 288.0,741.1 304.0,743.3 320.0,746.0 336.0,749.2 352.0,752.7 368.0,756.4 384.0,760.3 400.0,764.1 416.0,767.9 432.0,771.5 448.0,774.8 464.0,777.6 480.0,780.0 496.0,781.8 512.0,783.0 528.0,783.6 544.0,783.7 560.0,783.2 576.0,782.2 592.0,780.9 608.0,779.2 624.0,777.3 640.0,775.3 656.0,773.3 672.0,771.3 688.0,769.4 704.0,767.8 720.0,766.4 736.0,765.3 752.0,764.4 768.0,763.8 784.0,763.4 800.0,763.1 816.0,762.9 832.0,762.7 848.0,762.5 864.0,762.1 880.0,761.4 896.0,760.6 912.0,759.3 928.0,757.8 944.0,755.9 960.0,753.7 976.0,751.2 992.0,748.5 1008.0,745.6 1024.0,742.7 L1024,1024 L0,1024 Z" fill="#155d8c"/>
      <path d="M0.0,858.7 16.0,856.7 32.0,854.7 48.0,852.8 64.0,851.1 80.0,849.5 96.0,848.1 112.0,847.0 128.0,846.0 144.0,845.3 160.0,844.7 176.0,844.3 192.0,844.0 208.0,843.8 224.0,843.7 240.0,843.5 256.0,843.3 272.0,842.9 288.0,842.5 304.0,841.9 320.0,841.1 336.0,840.2 352.0,839.1 368.0,837.8 384.0,836.3 400.0,834.7 416.0,833.1 432.0,831.4 448.0,829.7 464.0,828.2 480.0,826.7 496.0,825.4 512.0,824.4 528.0,823.7 544.0,823.2 560.0,823.2 576.0,823.5 592.0,824.2 608.0,825.4 624.0,826.8 640.0,828.7 656.0,830.8 672.0,833.2 688.0,835.8 704.0,838.6 720.0,841.5 736.0,844.3 752.0,847.2 768.0,849.9 784.0,852.4 800.0,854.7 816.0,856.8 832.0,858.5 848.0,860.0 864.0,861.1 880.0,861.9 896.0,862.3 912.0,862.5 928.0,862.4 944.0,862.1 960.0,861.6 976.0,861.0 992.0,860.3 1008.0,859.6 1024.0,858.9 L1024,1024 L0,1024 Z" fill="#104874"/>
      <path d="M0.0,946.3 16.0,948.2 32.0,949.8 48.0,951.3 64.0,952.6 80.0,953.6 96.0,954.4 112.0,955.0 128.0,955.4 144.0,955.5 160.0,955.5 176.0,955.2 192.0,954.7 208.0,954.1 224.0,953.4 240.0,952.5 256.0,951.6 272.0,950.7 288.0,949.7 304.0,948.7 320.0,947.8 336.0,946.9 352.0,946.2 368.0,945.5 384.0,944.9 400.0,944.4 416.0,944.0 432.0,943.7 448.0,943.5 464.0,943.3 480.0,943.2 496.0,943.2 512.0,943.1 528.0,943.1 544.0,943.0 560.0,942.8 576.0,942.5 592.0,942.2 608.0,941.7 624.0,941.1 640.0,940.4 656.0,939.5 672.0,938.4 688.0,937.2 704.0,935.9 720.0,934.5 736.0,932.9 752.0,931.3 768.0,929.6 784.0,928.0 800.0,926.3 816.0,924.7 832.0,923.2 848.0,921.8 864.0,920.5 880.0,919.5 896.0,918.6 912.0,917.9 928.0,917.5 944.0,917.4 960.0,917.5 976.0,917.8 992.0,918.4 1008.0,919.3 1024.0,920.3 L1024,1024 L0,1024 Z" fill="#0c375c"/>
  </g>
</svg>
